<?xml version="1.0" encoding="UTF-8"?>
<svg width="300px" height="242px" viewBox="0 0 300 242" version="1.1" xmlns="http://www.w3.org/2000/svg" xmlns:xlink="http://www.w3.org/1999/xlink">
    <!-- Generator: Sketch 3.8.1 (29687) - http://www.bohemiancoding.com/sketch -->
    <title>travel</title>
    <desc>Created with Sketch.</desc>
    <defs></defs>
    <g id="Page-1" stroke="none" stroke-width="1" fill="none" fill-rule="evenodd">
        <g id="travel" fill="#57D8EA">
            <g id="Group">
                <path d="M99.41,66.701 L95.995,53.922 C88.606,55.897 81.257,58.346 74.154,61.199 L79.083,73.473 C85.699,70.817 92.535,68.54 99.41,66.701 L99.41,66.701 Z" id="Shape"></path>
                <path d="M59.714,82.641 L53.35,71.046 C46.647,74.727 40.093,78.856 33.868,83.32 L41.579,94.066 C47.376,89.911 53.476,86.067 59.714,82.641 L59.714,82.641 Z" id="Shape"></path>
                <path d="M0,114.421 L10.054,123.014 C14.683,117.598 19.694,112.409 24.942,107.592 L15.999,97.849 C10.358,103.025 4.975,108.599 0,114.421 L0,114.421 Z" id="Shape"></path>
                <path d="M285.464,109.098 L275.725,118.045 C280.548,123.296 285.098,128.893 289.253,134.677 L300,126.966 C295.534,120.748 290.647,114.736 285.464,109.098 L285.464,109.098 Z" id="Shape"></path>
                <path d="M243.18,90.253 C249.112,94.188 254.874,98.533 260.295,103.162 L268.883,93.104 C263.057,88.127 256.867,83.458 250.485,79.23 L243.18,90.253 L243.18,90.253 Z" id="Shape"></path>
                <path d="M230.536,67.687 C223.702,64.272 216.578,61.235 209.35,58.658 L204.91,71.117 C211.636,73.513 218.266,76.339 224.624,79.518 L230.536,67.687 L230.536,67.687 Z" id="Shape"></path>
                <path d="M110.915,76.603 L119.904,76.607 L127.397,65.244 L141.825,65.343 L132.741,96.663 L132.741,97.404 C132.741,101.359 135.959,104.579 139.914,104.579 L152.946,104.579 L173.627,66.225 L189.611,66.754 C197.884,66.754 204.616,60.262 204.616,52.287 C204.62,48.368 203.022,44.697 200.119,41.953 C197.302,39.29 193.574,37.82 189.454,37.82 L189.441,37.82 L173.49,38.353 L152.95,0.262 L139.896,0.258 C135.95,0.269 132.741,3.49 132.741,7.435 L132.741,8.173 L141.752,39.243 L127.263,39.369 L119.9,28.23 L110.917,28.232 C107.227,28.232 104.227,31.232 104.227,34.92 L104.227,69.916 C104.227,73.605 107.224,76.603 110.915,76.603 L110.915,76.603 Z M114.629,39.136 L114.633,39.136 L121.7,49.827 L155.577,49.534 L144.302,10.667 L146.736,10.667 L167.393,48.972 L189.617,48.229 C190.898,48.229 192.088,48.688 192.97,49.519 C193.77,50.275 194.209,51.256 194.209,52.285 C194.209,54.527 192.146,56.348 189.785,56.35 L167.53,55.614 L146.734,94.173 L144.3,94.173 L155.65,55.035 L121.82,54.799 L114.629,65.695 L114.629,39.136 L114.629,39.136 Z" id="Shape"></path>
                <path d="M171.305,127.619 C162.648,125.646 153.798,124.645 144.996,124.645 C89.634,124.645 42.363,162.401 30.047,216.459 C28.134,224.862 27.177,233.325 27.104,241.741 L40.332,241.741 C40.389,236.479 40.832,231.195 41.692,225.923 C49.13,227.83 56.792,230.889 59.254,232.898 C59.139,233.751 59.007,234.615 58.873,235.486 C58.575,237.415 58.254,239.549 58.121,241.742 L71.391,241.742 C71.53,240.243 71.766,238.663 71.944,237.501 C72.189,235.907 72.431,234.32 72.583,232.786 C73.405,224.48 63.986,217.838 44.623,213.026 C55.274,176.696 84.07,149.671 119.783,140.919 C117.815,144.724 116.23,149.432 115.568,155.388 C115.246,158.307 114.827,160.943 114.459,163.264 C112.978,172.624 111.446,182.303 124.103,187.937 C131.201,191.107 136.167,191.632 140.155,192.048 C142.095,192.251 143.805,192.432 145.622,192.897 C146.263,195.046 145.939,200.297 145.809,202.396 C145.644,205.061 145.476,207.781 146.29,210.003 C147.099,214.544 150.456,228.927 161.595,241.737 L181.5,241.737 C162.366,229.245 159.318,207.889 159.192,206.95 L158.921,204.772 C158.947,204.256 158.981,203.692 159.011,203.209 C159.436,196.325 160.23,183.504 150.416,180.506 C147.026,179.472 144.112,179.168 141.541,178.897 C137.855,178.509 134.674,178.174 129.49,175.862 C126.097,174.35 126.097,174.35 127.524,165.334 C127.914,162.867 128.357,160.068 128.712,156.841 C129.722,147.735 133.559,141.964 137.025,138.183 C139.659,137.987 142.315,137.868 144.996,137.868 C152.81,137.868 160.673,138.756 168.369,140.509 C195.661,146.727 218.9,163.198 233.799,186.887 C243.897,202.944 249.331,221.015 249.858,239.492 C248.758,240.213 247.389,240.973 245.917,241.738 L263.091,241.738 C262.968,220.012 256.85,198.698 244.995,179.848 C228.213,153.172 202.043,134.622 171.305,127.619 L171.305,127.619 Z" id="Shape"></path>
            </g>
        </g>
    </g>
</svg>